<svg width="14" height="19" viewBox="0 0 14 19" fill="none" xmlns="http://www.w3.org/2000/svg">
<path d="M9.478 12.266C9.478 11.5033 9.374 10.9573 9.166 10.628C8.958 10.2987 8.62867 10.0993 8.178 10.03C7.72733 9.96067 7.12933 9.94333 6.384 9.978L4.486 10.056V16.01C4.486 16.478 4.47733 16.8767 4.46 17.206C4.46 17.5353 4.44267 17.8127 4.408 18.038L9.374 17.96C10.1367 17.9427 10.7953 17.8213 11.35 17.596C11.9047 17.3533 12.338 16.9373 12.65 16.348C12.962 15.7587 13.118 14.9527 13.118 13.93H14.002L13.846 19H0.43V18.142C1.08867 18.1073 1.53933 17.96 1.782 17.7C2.02467 17.4227 2.15467 17.05 2.172 16.582C2.20667 16.0967 2.224 15.5507 2.224 14.944V3.712C2.224 3.36533 2.23267 3.036 2.25 2.724C2.26733 2.39467 2.28467 2.1 2.302 1.84C1.99 1.85733 1.678 1.87467 1.366 1.892C1.054 1.90933 0.742 1.92667 0.43 1.944V0.799999H12.936L13.066 5.35H12.208C12.208 4.32733 12.052 3.556 11.74 3.036C11.428 2.49867 11.0033 2.14333 10.466 1.97C9.946 1.77933 9.35667 1.69267 8.698 1.71L6.462 1.762C5.82067 1.77933 5.36133 1.90067 5.084 2.126C4.80667 2.35133 4.63333 2.68933 4.564 3.14C4.512 3.57333 4.486 4.14533 4.486 4.856V9.016L9.374 9.042L9.192 6.806H10.336V12.266H9.478Z" fill="black"/>
</svg>
